<?xml version="1.0" encoding="UTF-8"?>
<!-- Created with Inkscape (http://www.inkscape.org/) -->
<svg id="SVGRoot" width="48px" height="48px" version="1.1" viewBox="0 0 48 48" xmlns="http://www.w3.org/2000/svg">
 <defs>
  <linearGradient id="linearGradient9632" x1="42.199" x2="7.6336" y1="45.832" y2="4.2478" gradientTransform="matrix(1.0258 0 0 1.0258 -.94342 -.96648)" gradientUnits="userSpaceOnUse">
   <stop stop-color="#edaa15" offset="0"/>
   <stop stop-color="#feed8a" offset="1"/>
  </linearGradient>
 </defs>
 <path d="m10.084 2.3425h28.625c4.499 0 8.1209 3.6219 8.1209 8.1209v28.408c0 4.499-3.6219 8.1209-8.1209 8.1209h-28.625c-4.499 0-8.1209-3.6219-8.1209-8.1209v-28.408c0-4.499 3.6219-8.1209 8.1209-8.1209z" fill="#ddb514" fill-rule="evenodd" style="paint-order:stroke fill markers"/>
 <path d="m12.26 1.0851c7.7243 0.41381 15.207-0.32904 22.702 0.059556 8.9418 0.46362 11.596 4.9223 11.28 11.092-0.38987 7.6101-0.33458 15.22 0 22.83 0.27137 6.1723-5.0161 11.874-11.152 11.152-7.1308-0.83879-15.22-9.73e-4 -22.83 0-6.1782 7.91e-4 -11.45-4.981-11.152-11.152 0.36873-7.6349 0.69622-15.308 0-22.83-0.56942-6.1519 4.9826-11.483 11.152-11.152z" fill="url(#linearGradient9632)" fill-rule="evenodd" stroke-linecap="round" stroke-linejoin="round" stroke-width="3.877" style="paint-order:stroke fill markers"/>
 <g fill="#dfa50e" fill-rule="evenodd">
  <path d="m19.482 8.6507 23.803 13.572c-0.0033 0.0054-4e-3 0.01068-0.0038 0.02122v0.42448c-1e-6 0.02451-2e-6 0.04881 0 0.07332v0.05788c5e-6 0.0228 1.52e-4 0.04665 0 0.06946-1.17e-4 0.02245-3.52e-4 0.04316 0 0.06561-4.95e-4 0.02071-0.0048 0.04439 0.0058 0.06366 0.0068 0.01483-8e-5 0.04843 0 0.0656-9.92e-4 0.01427-4.05e-4 0.02482 0.0038 0.03858 0.0016 5e-3 0.0056 0.01165 0.0058 0.01158 5.12e-4 0.02185-0.0083 0.03766 0.0038 0.05981l2e-3 0.0019v0.0019c-1.17e-4 0.0047-4.22e-4 0.0089 0 0.0135 4.94e-4 0.01436-0.0035 0.03219-2e-3 0.04824 0.0021 0.0043 0.0054 0.0092 0.0077 0.0135 0.0037 0.0065 0.0074 0.01416 0.0097 0.02122 0.0017 0.0053-0.0072-0.0086-0.0097-0.0135 2.4e-5 0.0019-2.96e-4 0.0039 0 0.0058 0.0032 0.02061-3.95e-4 0.01669 0.0058 0.02508h2e-3c0.0014 0.01022 0.0028 0.01827 0.0038 0.02316 4.93e-4 0.0022-3.61e-4 0.0025 0 0.0039 3.19e-4 7.38e-4 0.0017 0.0033 2e-3 0.0039-6.7e-5 7.46e-4 -0.0027 0.0018-2e-3 0.0193 8.38e-4 0.01997 0.0052 0.04119 0.01737 0.05788v0.0019c-1.57e-4 0.0014 1.5e-4 0.0025 0 0.0039-0.0026 6.58e-4 -0.0053 0.0011-0.0077 0.0019-0.0022 6.92e-4 0.0019 0.0054 2e-3 0.0077-7.67e-4 8.89e-4 2.01e-4 0.0026 0 0.0039-4.94e-4 3e-3 -0.0013 0.0066-2e-3 0.0097-0.0053 0.02028-0.0024 0.0411-2e-3 0.06174-1.36e-4 0.0088-1.31e-4 0.01629 0 0.02508 1.21e-4 0.01197 1.2e-5 0.02468 0 0.03666-7.51e-4 0.0082 2e-3 0.01462 0.0058 0.02122-3.16e-4 0.0044-0.0017 0.0075 0 0.01351 6.92e-4 0.0023 0.0031 0.0053 0.0038 0.0077l-2e-3 0.0019c-6.05e-4 0.0085-0.0011 0.01658 0 0.02508-2.74e-4 0.0011 1.63e-4 0.0027 0 0.0039-3e-5 0.0043 2e-6 0.0092 0 0.0135v0.0019c1.2e-5 0.0038 2e-6 0.0078 0 0.01157v0.03077l-23.697 13.852zm23.85 13.61c-0.0013 0.0014-0.0024 0.0023-0.0038 0.0039-0.0022 0.0022-0.0066 0.0016-0.0097 0.0019 0.0054-0.0026 0.0096-0.0043 0.0135-0.0058zm0.02122 0.0193v0.0019c-4.3e-5 8.58e-4 5.73e-4 0.0018 0 0.0039h-2e-3v-0.0058zm0.10033 0.07139 2e-3 0.0019v0.0019h-2e-3c1.67e-4 -0.0013-2.36e-4 -0.0026 0-0.0039zm-0.07139 0.17558 2e-3 0.0019v0.0019l-2e-3 0.0019z" style="paint-order:stroke fill markers"/>
  <path d="m7.7115 37.505 24.935-14.577-25.092-14.306z" stroke-linecap="round" stroke-linejoin="round" stroke-width="2.8425" style="paint-order:stroke fill markers"/>
  <path d="m43.329 9.508h-8.0284v27.558h8.0284z" stroke-linecap="round" stroke-linejoin="round" stroke-width="3.3668" style="paint-order:stroke fill markers"/>
  <path d="m17.786 11.45 23.803 13.572c-0.0033 0.0054-4e-3 0.01068-0.0038 0.02122v0.42448c-1e-6 0.02451-2e-6 0.04881 0 0.07332v0.05788c5e-6 0.0228 1.52e-4 0.04665 0 0.06946-1.17e-4 0.02245-3.51e-4 0.04316 0 0.06561-4.95e-4 0.02071-0.0048 0.04439 0.0058 0.06366 0.0068 0.01483-8e-5 0.04843 0 0.06561-9.92e-4 0.01427-4.05e-4 0.02482 0.0038 0.03858 0.0016 5e-3 0.0056 0.01165 0.0058 0.01157 5.12e-4 0.02185-0.0083 0.03766 0.0038 0.05981l2e-3 0.0019v0.0019c-1.16e-4 0.0047-4.22e-4 0.0089 0 0.0135 4.94e-4 0.01436-0.0035 0.03219-2e-3 0.04824 0.0021 0.0043 0.0054 0.0092 0.0077 0.0135 0.0037 0.0065 0.0074 0.01416 0.0097 0.02122 0.0017 0.0053-0.0072-0.0086-0.0097-0.0135 2.4e-5 0.0019-2.96e-4 0.0039 0 0.0058 0.0032 0.02061-3.95e-4 0.01669 0.0058 0.02508h2e-3c0.0014 0.01022 0.0028 0.01827 0.0038 0.02316 4.93e-4 0.0022-3.6e-4 0.0025 0 0.0039 3.19e-4 7.38e-4 0.0017 0.0033 2e-3 0.0039-6.7e-5 7.47e-4 -0.0027 0.0018-2e-3 0.01929 8.38e-4 0.01997 0.0052 0.04119 0.01737 0.05788v0.0019c-1.57e-4 0.0014 1.5e-4 0.0025 0 0.0039-0.0026 6.56e-4 -0.0053 0.0011-0.0077 0.0019-0.0022 6.91e-4 0.0019 0.0054 2e-3 0.0077-7.66e-4 8.89e-4 2.01e-4 0.0026 0 0.0039-4.94e-4 3e-3 -0.0013 0.0066-2e-3 0.0097-0.0053 0.02028-0.0024 0.04109-2e-3 0.06174-1.36e-4 0.0088-1.31e-4 0.01629 0 0.02508 1.21e-4 0.01197 1.2e-5 0.02468 0 0.03665-7.51e-4 0.0082 2e-3 0.01462 0.0058 0.02122-3.16e-4 0.0044-0.0017 0.0075 0 0.01351 6.92e-4 0.0023 0.0031 0.0053 0.0038 0.0077l-2e-3 0.0019c-6.05e-4 0.0085-0.0011 0.01658 0 0.02508-2.73e-4 0.0011 1.63e-4 0.0027 0 0.0039-3e-5 0.0043 2e-6 0.0092 0 0.01351v0.0019c1.2e-5 0.0038 2e-6 0.0078 0 0.01157v0.03077l-23.697 13.852zm23.85 13.61c-0.0013 0.0014-0.0024 0.0023-0.0038 0.0039-0.0022 0.0022-0.0066 0.0016-0.0097 0.0019 0.0054-0.0026 0.0096-0.0043 0.0135-0.0058zm0.02122 0.01929v0.0019c-4.3e-5 8.56e-4 5.73e-4 0.0018 0 0.0039h-2e-3v-0.0058zm0.10033 0.0714 2e-3 0.0019v0.0019h-2e-3c1.67e-4 -0.0013-2.36e-4 -0.0026 0-0.0039zm-0.07139 0.17558 2e-3 0.0019v0.0019l-2e-3 0.0019z" style="paint-order:stroke fill markers"/>
  <path d="m6.0159 40.305 24.935-14.577-25.092-14.306z" stroke-linecap="round" stroke-linejoin="round" stroke-width="2.8425" style="paint-order:stroke fill markers"/>
  <path d="m41.633 12.308h-8.0284v27.558h8.0284z" stroke-linecap="round" stroke-linejoin="round" stroke-width="3.3668" style="paint-order:stroke fill markers"/>
 </g>
 <g fill="#ffdf0d" fill-rule="evenodd" stroke-linecap="round" stroke-linejoin="round">
  <path d="m8.9958 35.648 21.752-12.716-21.888-12.48z" stroke-width="2.4796" style="paint-order:stroke fill markers"/>
  <path d="m20.847 35.673 21.752-12.716-21.888-12.48z" stroke-width="2.4796" style="paint-order:stroke fill markers"/>
  <path d="m42.476 10.548h-6.5213v25.199h6.5213z" stroke-width="2.9016" style="paint-order:stroke fill markers"/>
 </g>
</svg>
