<?xml version="1.0" encoding="UTF-8"?>
<!-- Created with Inkscape (http://www.inkscape.org/) -->
<svg id="SVGRoot" width="48px" height="48px" version="1.1" viewBox="0 0 48 48" xmlns="http://www.w3.org/2000/svg" xmlns:xlink="http://www.w3.org/1999/xlink">
 <defs>
  <radialGradient id="radialGradient3628" cx="66.399" cy="-7.2203" r="23.13" gradientTransform="matrix(.10474 -1.2871 1.2469 .096679 32.559 117.31)" gradientUnits="userSpaceOnUse">
   <stop stop-color="#ea200b" offset="0"/>
   <stop stop-color="#9a1e08" offset="1"/>
  </radialGradient>
  <radialGradient id="radialGradient3628-5" cx="41.206" cy="25.6" r="23.13" gradientTransform="matrix(-.013141 1.3058 -.98404 -.0099005 36.869 -44.583)" gradientUnits="userSpaceOnUse">
   <stop stop-color="#ea200b" offset="0"/>
   <stop stop-color="#9a1e08" offset="1"/>
  </radialGradient>
 </defs>
 <circle cx="24.07" cy="24.448" r="23.403" fill="url(#radialGradient3628-5)" fill-rule="evenodd" stroke-width="1.0118" style="paint-order:stroke fill markers"/>
 <ellipse cx="24.087" cy="22.993" rx="23.403" ry="22.844" fill="url(#radialGradient3628)" fill-rule="evenodd" stroke-width=".99965" style="paint-order:stroke fill markers"/>
 <path d="m12.569 14.881c-0.05097-1.0958-0.10192-2.1914 0.1083-3.2107 0.21022-1.0193 0.68165-1.9622 1.3952-2.7905 0.71356-0.82825 1.6692-1.5417 2.7013-2.1789 1.0321-0.63709 2.1406-1.1977 3.0835-1.3442 0.94295-0.14647 1.7202 0.1211 2.2553 0.54799 0.53505 0.4269 0.82816 1.013 0.99375 1.4589 0.1656 0.44591 0.20382 0.75174 0.33769 0.93006 0.13386 0.17832 0.36321 0.22929 0.56699 0.17193 0.20378-0.057361 0.38216-0.223 0.40129-0.65613 0.01912-0.43313-0.12102-1.1339-0.4013-1.7455-0.28027-0.61161-0.70086-1.1342-1.1213-1.6566 1.0448 0.49692 2.0898 0.99393 2.7778 1.6629 0.68799 0.66899 1.0193 1.5099 1.2551 1.9877 0.23576 0.47778 0.37592 0.59245 0.56699 0.57963 0.19106-0.012829 0.43314-0.15298 0.4013-0.64343-0.03185-0.49045-0.33764-1.3314-0.7071-1.9813-0.36947-0.6499-0.80282-1.1087-1.236-1.5674 0.87916 0.47144 1.7586 0.94297 2.3701 1.6374 0.61154 0.69447 0.95556 1.6118 1.1658 2.1151 0.21026 0.50326 0.28673 0.59249 0.42686 0.58602 0.14012-0.0065 0.34398-0.1084 0.35035-0.52241 0.0063-0.414-0.18481-1.1404-0.37593-1.8667l1.6055 3.6313c-0.84094-0.07644-1.6818-0.15288-2.1469-0.09553-0.46517 0.05736-0.55436 0.24848-0.49055 0.43965 0.0638 0.19116 0.28041 0.38228 0.79008 0.52875 0.50968 0.14647 1.3123 0.2484 1.771 0.57339 0.45866 0.32499 0.57327 0.87269 0.68794 1.4206-0.84094-0.11467-1.6818-0.22932-2.166-0.19109-0.48428 0.03823-0.61169 0.22935-0.53513 0.40777 0.07656 0.17842 0.35686 0.34405 0.90474 0.45868 0.54789 0.11463 1.3633 0.17833 1.7965 0.45873 0.43315 0.2804 0.4841 0.77714 0.53506 1.2741-0.86643-0.05097-1.7326-0.10192-2.2234-0.02545-0.49064 0.07648-0.60531 0.28033-0.57337 0.48425 0.03195 0.20392 0.21032 0.40779 0.76459 0.50326 0.55427 0.09547 1.4843 0.08275 2.0004 0.34402 0.51598 0.2613 0.61788 0.79626 0.71981 1.3314-0.89192-0.06371-1.7836-0.12741-2.2998-0.05095-0.51613 0.07646-0.65629 0.29307-0.64983 0.51611 0.0064 0.22305 0.15934 0.4524 0.68177 0.52875 0.52242 0.07635 1.4143-9.2e-5 1.943 0.22298 0.52868 0.22308 0.69432 0.74529 0.85997 1.2677-0.14016 0.05097-0.28022 0.1019-0.72616 0.12103-0.44593 0.01913-1.1977 0.0063-1.6437 0.10197-0.44604 0.09557-0.5862 0.29944-0.56701 0.50337 0.01919 0.20393 0.19757 0.40779 0.71999 0.47141 0.5224 0.06363 1.3888-0.01282 1.924 0.15292 0.53513 0.16574 0.7389 0.57328 0.94277 0.98101-1.0066 0.1529-2.013 0.30578-2.5547 0.49695-0.54161 0.19117-0.61805 0.42052-0.53513 0.63079 0.08291 0.21026 0.32501 0.40138 0.89199 0.43953 0.56699 0.03814 1.4587-0.07651 2.3507-0.19118 0.24209 1.1467 0.48422 2.2936 0.4778 3.2493-0.0063 0.95559-0.26123 1.7201-0.84095 2.408-0.57972 0.688-1.4843 1.2996-3.0643 1.8857-1.58 0.58612-3.8351 1.1467-5.7081 1.4781-1.873 0.33137-3.3637 0.43322-4.8354 0.1211-1.4716-0.31213-2.9242-1.0383-3.7842-1.7646-0.86011-0.72623-1.1278-1.4527-1.3953-2.179 0.12741-0.14016 0.25482-0.2803 0.89194-0.6371 0.63713-0.35679 1.7838-0.93015 2.3826-1.3251 0.59881-0.39492 0.64977-0.61153 0.56068-0.79628-0.08909-0.18475-0.31843-0.33765-0.98744-0.12748-0.66901 0.21016-1.7776 0.78356-2.886 1.357l-0.22934-0.22935c-0.14016-0.48418-0.28026-0.96816 0.2804-1.4588 0.56065-0.49066 1.8221-0.98757 2.5037-1.3507 0.68162-0.36308 0.78355-0.59242 0.7518-0.77715-0.03176-0.18472-0.19739-0.32488-0.44588-0.35044-0.24849-0.02557-0.57977 0.06362-1.2169 0.35668-0.63711 0.29305-1.5801 0.79-2.5229 1.2869-0.14016-0.50967-0.28026-1.0191 0.3441-1.5926 0.62436-0.5735 2.0131-1.2105 2.7712-1.6565 0.75808-0.44591 0.88549-0.70074 0.85374-0.89183-0.03175-0.19109-0.22286-0.3185-0.40125-0.39501-0.17838-0.0765-0.34402-0.10198-1.0513 0.24838-0.70727 0.35036-1.956 1.0767-3.2047 1.8029-0.11467-0.53514-0.22931-1.0701 0.4078-1.6819 0.63711-0.61171 2.0259-1.2997 2.7585-1.7902 0.73259-0.49048 0.80904-0.78354 0.78366-0.98739-0.02538-0.20384-0.1528-0.31852-0.33757-0.35046-0.18477-0.03193-0.42687 0.01903-1.1149 0.38854-0.68809 0.36951-1.8221 1.0576-2.9561 1.7456-0.11467-0.47144-0.2293-0.94269-0.12099-1.2805 0.1083-0.33776 0.43958-0.54162 1.0703-0.9175 0.63072-0.37588 1.5608-0.92376 2.0577-1.2996 0.49688-0.37581 0.56059-0.57968 0.52882-0.74529-0.03176-0.16562-0.15918-0.29302-0.36944-0.32497-0.21026-0.03194-0.5033 0.03176-1.1149 0.36942-0.61165 0.33766-1.5418 0.94926-2.4719 1.5608-0.08918-0.31854-0.17834-0.63689-0.15926-0.91727 0.01908-0.28038 0.14649-0.52246 0.74539-0.99394 0.5989-0.47149 1.6692-1.1723 2.2234-1.6181 0.55423-0.44589 0.59245-0.63699 0.5352-0.80262-0.05725-0.16564-0.21014-0.30579-0.45864-0.32499-0.24849-0.01919-0.5925 0.08274-1.1659 0.44588-0.57341 0.36314-1.3762 0.98749-2.1789 1.6118v4e-5z" fill="#fff" stroke-width="1.0118"/>
 <path d="m19.339 11.43c0.61801-0.23573 1.854-0.70717 3.2237-0.98747 1.3697-0.2803 2.8733-0.36949 3.7206-0.31207 0.84731 0.05743 1.0384 0.26128 1.0511 0.4842 0.01266 0.22292-0.15298 0.465-0.91104 0.61152-0.75805 0.14651-2.1086 0.19748-3.3956 0.43318-1.2869 0.23571-2.5101 0.65617-3.2236 0.80914-0.71349 0.15297-0.91735 0.03829-1.013-0.14007-0.09566-0.17836-0.08291-0.42045-0.07654-0.54157 0.0063-0.12111 0.0063-0.12111 0.62438-0.35685z" fill="#a91e09" stroke-width="1.0118"/>
 <g transform="matrix(1.0118 0 0 1.0118 -.44298 -1.1206)" fill="#ae1e09">
  <path d="m20.307 17.768c0.61079-0.23298 1.8323-0.69891 3.186-0.97593 1.3538-0.27703 2.8397-0.36517 3.6771-0.30842 0.83741 0.05675 1.0263 0.25823 1.0388 0.47854 0.01251 0.22031-0.15119 0.45957-0.90039 0.60436-0.7492 0.1448-2.084 0.19517-3.3559 0.42812s-2.4808 0.6485-3.1859 0.79968-0.90663 0.03784-1.0012-0.13844c-0.09454-0.17628-0.08194-0.41554-0.07564-0.53524s0.0063-0.1197 0.61708-0.35268z"/>
  <path d="m21.554 23.208c0.61079-0.23298 1.8323-0.6989 3.186-0.97593 1.3538-0.27703 2.8397-0.36517 3.6771-0.30842 0.83741 0.05675 1.0263 0.25823 1.0388 0.47854 0.01251 0.22031-0.15119 0.45957-0.90039 0.60436-0.74919 0.1448-2.084 0.19517-3.3559 0.42812-1.2719 0.23296-2.4808 0.6485-3.1859 0.79968s-0.90663 0.03785-1.0012-0.13843c-0.09454-0.17628-0.08194-0.41554-0.07564-0.53524s0.0063-0.1197 0.61708-0.35268z"/>
  <path d="m22.007 25.74c0.61078-0.23298 1.8323-0.69891 3.186-0.97594 1.3538-0.27703 2.8397-0.36517 3.6771-0.30842 0.83742 0.05675 1.0263 0.25823 1.0388 0.47854 0.01251 0.22031-0.1512 0.45957-0.90039 0.60436s-2.084 0.19516-3.3559 0.42812-2.4808 0.6485-3.1859 0.79968c-0.70515 0.15118-0.90662 0.03785-1.0012-0.13843-0.09454-0.17628-0.08194-0.41554-0.07564-0.53524s0.0063-0.1197 0.61707-0.35268z"/>
  <path d="m21.063 20.451c0.61078-0.23298 1.8323-0.69891 3.186-0.97594s2.8397-0.36517 3.6771-0.30842c0.83742 0.05675 1.0263 0.25823 1.0388 0.47854 0.01251 0.22031-0.15119 0.45957-0.90039 0.60436s-2.084 0.19516-3.3559 0.42812-2.4808 0.6485-3.1859 0.79968c-0.70514 0.15118-0.90662 0.03784-1.0012-0.13844-0.09453-0.17628-0.08194-0.41553-0.07564-0.53524s0.0063-0.1197 0.61707-0.35268z"/>
  <path d="m20.08 15.162c0.61079-0.23298 1.8323-0.69891 3.186-0.97593 1.3538-0.27703 2.8397-0.36517 3.6771-0.30842 0.83742 0.05675 1.0263 0.25823 1.0388 0.47854 0.01251 0.22031-0.1512 0.45957-0.90039 0.60436s-2.084 0.19516-3.3559 0.42812-2.4808 0.6485-3.1859 0.79968c-0.70514 0.15118-0.90662 0.03784-1.0012-0.13843-0.09454-0.17628-0.08194-0.41554-0.07564-0.53524s0.0063-0.1197 0.61708-0.35268z"/>
  <path d="m27.274 27.883c0.04453 0.59222 0.13356 1.7765-0.29828 2.6312s-1.3846 1.3801-1.9278 1.7051c-0.54319 0.32502-0.67675 0.44968-0.69004 0.57888s0.09356 0.26276 0.28502 0.33392c0.19146 0.07115 0.46748 0.08006 1.0952-0.20936 0.62771-0.28941 1.6072-0.87709 2.1592-1.3757s0.67669-0.90818 0.70788-1.6161c0.03118-0.70787-0.03115-1.714-0.13794-2.2973-0.10679-0.58324-0.25816-0.74351-0.43181-0.80593-0.17366-0.06242-0.36954-0.0268-0.50763 0.06674s-0.21822 0.2449-0.25828 0.32056-0.04006 0.07566 0.0045 0.66789z"/>
  <path d="m30.627 27.302c0.03562 0.59445 0.10686 1.7832-0.26824 2.6869-0.3751 0.90372-1.1965 1.5225-1.7107 1.8765-0.51422 0.35395-0.72123 0.44299-0.7913 0.52323-0.07008 0.08025-0.0033 0.15146 0.16811 0.19146 0.17142 0.03999 0.44743 0.0489 1.0751-0.24052 0.62771-0.28941 1.6072-0.87709 2.1592-1.3757 0.55203-0.49859 0.67669-0.90817 0.70788-1.616 0.03119-0.70788-0.03114-1.714-0.13793-2.2973-0.10678-0.58324-0.25816-0.74352-0.43181-0.80593-0.17365-0.06242-0.36955-0.0268-0.50764 0.06674s-0.21822 0.24489-0.25828 0.32055c-0.04005 0.07566-0.04005 0.07566-0.0044 0.6701z"/>
  <path d="m33.216 26.834c0.14027 0.54102 0.42075 1.6229 0.11352 2.6112-0.30723 0.98831-1.2021 1.8832-1.6006 2.2817-0.39854 0.39856-0.30073 0.30078-0.19345 0.24804s0.22385-0.0604 0.25998-0.07129c0.03613-0.01088-0.0083-0.02506 0.32695-0.29771 0.33524-0.27264 1.0502-0.80364 1.4858-1.2739 0.43557-0.47027 0.5917-0.87985 0.67011-1.5562 0.0784-0.67639 0.07904-1.6196 0.0037-2.1714-0.0753-0.55175-0.22667-0.71203-0.40032-0.77445s-0.36954-0.0268-0.50764 0.06674c-0.13809 0.09354-0.21822 0.2449-0.25828 0.32056-0.04005 0.07566-0.04006 0.07566 0.10021 0.61669z"/>
 </g>
 <g fill="#fff">
  <path d="m18.368 23.784c-0.01682 2.1473-0.05046 6.4418-0.02521 8.8061 0.02525 2.3643 0.10934 2.7984 0.31122 3.2248 0.20188 0.42636 0.52144 0.84494 0.91673 1.1162 0.39529 0.27126 0.86622 0.39529 1.4213 0.51931s1.1942 0.24805 1.5805 0.31685c0.38625 0.06879 0.51946 0.08236 0.65283 0.09594-0.46978-0.29599-0.9394-0.59189-1.2725-0.93171-0.33307-0.33982-0.52928-0.72351-0.6215-1.0332-0.09222-0.30972-0.08033-0.5454-0.08329-2.9436-0.0029-2.3982-0.0208-6.9585-0.12482-9.3845-0.10402-2.4255-0.2943-2.716-0.56484-2.9216-0.27054-0.2056-0.62138-0.32619-0.95445-0.2906-0.33308 0.03559-0.64824 0.22744-0.84846 0.46656-0.20022 0.23912-0.28544 0.52541-0.32802 0.66851-0.04259 0.1431-0.04259 0.14311-0.05941 2.2904z" stroke-width=".97144"/>
  <path d="m28.309 33.899 2.676-0.57554c0.01784 0.39466 0.03569 0.78946-0.05948 1.1923-0.09516 0.40285-0.30329 0.81394-0.60059 1.1346-0.2973 0.32062-0.68382 0.55083-1.7334 0.75639s-2.7621 0.38644-3.779 0.44128c-1.0169 0.05484-1.3379-0.01642-1.5936-0.126-0.25571-0.10959-0.44615-0.2577-0.63644-0.4057 1.2606-0.12059 2.5215-0.24119 3.3658-0.38372 0.84437-0.14253 1.2726-0.30696 1.5877-0.50702 0.31512-0.20005 0.5173-0.43574 0.62732-0.69606 0.11002-0.26032 0.12786-0.54546 0.1457-0.83049h7e-6z" stroke-width=".97144"/>
  <path d="m23.564 37.858 2.9792-0.25789 0.05352 4.513-2.9703 0.13204-0.06244-4.3871z" stroke-width=".72943"/>
 </g>
 <path d="m20.042 20.432c0.54844 0.10517 1.097 0.21036 1.4334 0.45882 0.33646 0.24846 0.461 0.64009 0.54843 2.8112 0.08745 2.1711 0.1378 6.1214 0.18817 10.072l-0.94682-0.34289c-0.07118-3.8531-0.14232-7.706-0.19865-9.7591-0.05634-2.0531-0.09787-2.3065-0.26611-2.5465-0.16824-0.23999-0.46342-0.46677-0.75848-0.69345h-7e-6z" fill="#d01f0a" stroke-width="1.0118"/>
</svg>
