<?xml version="1.0" encoding="UTF-8"?>
<!-- Created with Inkscape (http://www.inkscape.org/) -->
<svg id="SVGRoot" width="48px" height="48px" version="1.1" viewBox="0 0 48 48" xmlns="http://www.w3.org/2000/svg">
 <defs>
  <linearGradient id="linearGradient9632" x1="42.199" x2="7.6336" y1="45.832" y2="4.2478" gradientTransform="matrix(1.0258 0 0 1.0258 -.94342 -.96648)" gradientUnits="userSpaceOnUse">
   <stop stop-color="#edaa15" offset="0"/>
   <stop stop-color="#feed8a" offset="1"/>
  </linearGradient>
 </defs>
 <path d="m10.084 2.3425h28.625c4.499 0 8.1209 3.6219 8.1209 8.1209v28.408c0 4.499-3.6219 8.1209-8.1209 8.1209h-28.625c-4.499 0-8.1209-3.6219-8.1209-8.1209v-28.408c0-4.499 3.6219-8.1209 8.1209-8.1209z" fill="#ddb514" fill-rule="evenodd" style="paint-order:stroke fill markers"/>
 <path d="m12.26 1.0851c7.7243 0.41381 15.207-0.32904 22.702 0.059556 8.9418 0.46362 11.596 4.9223 11.28 11.092-0.38987 7.6101-0.33458 15.22 0 22.83 0.27137 6.1723-5.0161 11.874-11.152 11.152-7.1308-0.83879-15.22-9.73e-4 -22.83 0-6.1782 7.91e-4 -11.45-4.981-11.152-11.152 0.36873-7.6349 0.69622-15.308 0-22.83-0.56942-6.1519 4.9826-11.483 11.152-11.152z" fill="url(#linearGradient9632)" fill-rule="evenodd" stroke-linecap="round" stroke-linejoin="round" stroke-width="3.877" style="paint-order:stroke fill markers"/>
 <g fill="#dfa50e" fill-rule="evenodd">
  <path d="m29.833 8.6507-23.803 13.572c0.00326 0.0054 0.00395 0.01068 0.00385 0.02122v0.42448c1e-6 0.02451 1.9e-6 0.04881 0 0.07332v0.05788c-5e-6 0.0228-1.522e-4 0.04665 0 0.06946 1.175e-4 0.02245 3.517e-4 0.04316 0 0.06561 4.948e-4 0.02071 0.00475 0.04439-0.00583 0.06366-0.00682 0.01483 8e-5 0.04843 0 0.0656 9.92e-4 0.01427 4.049e-4 0.02482-0.00385 0.03858-0.00159 5e-3 -0.00563 0.01165-0.00583 0.01158-5.118e-4 0.02185 0.0083 0.03766-0.00385 0.05981l-0.00197 0.0019v0.0019c1.166e-4 0.0047 4.218e-4 0.0089 0 0.0135-4.939e-4 0.01436 0.00346 0.03219 0.00197 0.04824-0.00207 0.0043-0.00544 0.0092-0.0077 0.0135-0.00366 0.0065-0.00741 0.01416-0.00968 0.02122-0.00168 0.0053 0.00721-0.0086 0.00968-0.0135-2.37e-5 0.0019 2.964e-4 0.0039 0 0.0058-0.00316 0.02061 3.952e-4 0.01669-0.00583 0.02508h-0.00197c-0.00138 0.01022-0.00276 0.01827-0.00385 0.02316-4.929e-4 0.0022 3.607e-4 0.0025 0 0.0039-3.191e-4 7.38e-4 -0.00168 0.0033-0.00197 0.0039 6.72e-5 7.46e-4 0.00266 0.0018 0.00197 0.0193-8.376e-4 0.01997-0.00523 0.04119-0.017367 0.05788v0.0019c1.571e-4 0.0014-1.502e-4 0.0025 0 0.0039 0.00257 6.58e-4 0.00533 0.0011 0.0077 0.0019 0.00217 6.92e-4 -0.00188 0.0054-0.00197 0.0077 7.666e-4 8.89e-4 -2.005e-4 0.0026 0 0.0039 4.94e-4 3e-3 0.00128 0.0066 0.00197 0.0097 0.00534 0.02028 0.00237 0.0411 0.00197 0.06174 1.363e-4 0.0088 1.313e-4 0.01629 0 0.02508-1.206e-4 0.01197-1.19e-5 0.02468 0 0.03666 7.507e-4 0.0082-0.00197 0.01462-0.00583 0.02122 3.161e-4 0.0044 0.00168 0.0075 0 0.01351-6.915e-4 0.0023-0.00306 0.0053-0.00385 0.0077l0.00197 0.0019c6.055e-4 0.0085 0.00109 0.01658 0 0.02508 2.736e-4 0.0011-1.63e-4 0.0027 0 0.0039 3.05e-5 0.0043-2e-6 0.0092 0 0.0135v0.0019c-1.19e-5 0.0038-2e-6 0.0078 0 0.01157v0.03077l23.697 13.852zm-23.85 13.61c0.00128 0.0014 0.00237 0.0023 0.00385 0.0039 0.00217 0.0022 0.00662 0.0016 0.00968 0.0019-0.00544-0.0026-0.00958-0.0043-0.013504-0.0058zm-0.021219 0.0193v0.0019c4.25e-5 8.58e-4 -5.729e-4 0.0018 0 0.0039h0.00197v-0.0058zm-0.10033 0.07139-0.00197 0.0019v0.0019h0.00197c-1.669e-4 -0.0013 2.361e-4 -0.0026 0-0.0039zm0.071394 0.17558-0.00197 0.0019v0.0019l0.00197 0.0019z" style="paint-order:stroke fill markers"/>
  <path d="m41.603 37.505-24.935-14.577 25.092-14.306z" stroke-linecap="round" stroke-linejoin="round" stroke-width="2.8425" style="paint-order:stroke fill markers"/>
  <path d="m5.9858 9.508h8.0284v27.558h-8.0284z" stroke-linecap="round" stroke-linejoin="round" stroke-width="3.3668" style="paint-order:stroke fill markers"/>
  <path d="m31.528 11.45-23.803 13.572c0.00326 0.0054 0.00395 0.01068 0.00385 0.02122v0.42448c1e-6 0.02451 2e-6 0.04881 0 0.07332v0.05788c-4.9e-6 0.0228-1.521e-4 0.04665 0 0.06946 1.176e-4 0.02245 3.517e-4 0.04316 0 0.06561 4.95e-4 0.02071 0.00475 0.04439-0.00583 0.06366-0.00682 0.01483 8e-5 0.04843 0 0.06561 9.92e-4 0.01427 4.051e-4 0.02482-0.00385 0.03858-0.00159 5e-3 -0.00563 0.01165-0.00583 0.01157-5.117e-4 0.02185 0.0083 0.03766-0.00385 0.05981l-0.00197 0.0019v0.0019c1.165e-4 0.0047 4.218e-4 0.0089 0 0.0135-4.94e-4 0.01436 0.00346 0.03219 0.00197 0.04824-0.00207 0.0043-0.00544 0.0092-0.0077 0.0135-0.00366 0.0065-0.00741 0.01416-0.00968 0.02122-0.00168 0.0053 0.00721-0.0086 0.00968-0.0135-2.38e-5 0.0019 2.963e-4 0.0039 0 0.0058-0.00316 0.02061 3.951e-4 0.01669-0.00583 0.02508h-0.00197c-0.00138 0.01022-0.00276 0.01827-0.00385 0.02316-4.93e-4 0.0022 3.605e-4 0.0025 0 0.0039-3.191e-4 7.38e-4 -0.00168 0.0033-0.00197 0.0039 6.72e-5 7.47e-4 0.00266 0.0018 0.00197 0.01929-8.378e-4 0.01997-0.00523 0.04119-0.017367 0.05788v0.0019c1.571e-4 0.0014-1.501e-4 0.0025 0 0.0039 0.00257 6.56e-4 0.00534 0.0011 0.0077 0.0019 0.00217 6.91e-4 -0.00188 0.0054-0.00197 0.0077 7.667e-4 8.89e-4 -2.005e-4 0.0026 0 0.0039 4.94e-4 3e-3 0.00128 0.0066 0.00197 0.0097 0.00534 0.02028 0.00237 0.04109 0.00197 0.06174 1.364e-4 0.0088 1.314e-4 0.01629 0 0.02508-1.205e-4 0.01197-1.18e-5 0.02468 0 0.03665 7.508e-4 0.0082-0.00197 0.01462-0.00583 0.02122 3.162e-4 0.0044 0.00168 0.0075 0 0.01351-6.915e-4 0.0023-0.00306 0.0053-0.00385 0.0077l0.00197 0.0019c6.057e-4 0.0085 0.00109 0.01658 0 0.02508 2.737e-4 0.0011-1.63e-4 0.0027 0 0.0039 3.07e-5 0.0043-1.9e-6 0.0092 0 0.01351v0.0019c-1.18e-5 0.0038-1.9e-6 0.0078 0 0.01157v0.03077l23.697 13.852zm-23.85 13.61c0.00128 0.0014 0.00237 0.0023 0.00385 0.0039 0.00217 0.0022 0.00662 0.0016 0.00968 0.0019-0.00544-0.0026-0.00958-0.0043-0.013504-0.0058zm-0.021219 0.01929v0.0019c4.25e-5 8.56e-4 -5.729e-4 0.0018 0 0.0039h0.00197v-0.0058zm-0.10033 0.0714-0.00197 0.0019v0.0019h0.00197c-1.67e-4 -0.0013 2.362e-4 -0.0026 0-0.0039zm0.071394 0.17558-0.00197 0.0019v0.0019l0.00197 0.0019z" style="paint-order:stroke fill markers"/>
  <path d="m43.299 40.305-24.935-14.577 25.092-14.306z" stroke-linecap="round" stroke-linejoin="round" stroke-width="2.8425" style="paint-order:stroke fill markers"/>
  <path d="m7.6814 12.308h8.0284v27.558h-8.0284z" stroke-linecap="round" stroke-linejoin="round" stroke-width="3.3668" style="paint-order:stroke fill markers"/>
 </g>
 <g fill="#ffdf0d" fill-rule="evenodd" stroke-linecap="round" stroke-linejoin="round">
  <path d="m40.319 35.648-21.752-12.716 21.888-12.48z" stroke-width="2.4796" style="paint-order:stroke fill markers"/>
  <path d="m28.468 35.673-21.752-12.716 21.888-12.48z" stroke-width="2.4796" style="paint-order:stroke fill markers"/>
  <path d="m6.8383 10.548h6.5213v25.199h-6.5213z" stroke-width="2.9016" style="paint-order:stroke fill markers"/>
 </g>
</svg>
